<?xml version="1.0" ?><!DOCTYPE svg  PUBLIC '-//W3C//DTD SVG 1.0//EN'  'http://www.w3.org/TR/2001/REC-SVG-20010904/DTD/svg10.dtd'><svg enable-background="new 0 0 32 32" height="32px" id="Layer_1" version="1.0" viewBox="0 0 32 32" width="32px" xml:space="preserve" xmlns="http://www.w3.org/2000/svg" xmlns:xlink="http://www.w3.org/1999/xlink"><path d="M17,0v8h8v5h-8v8c0,1.858,0.177,3.35,0.374,3.878c0.197,0.526,0.562,0.946,1.099,1.264  c0.711,0.426,1.52,0.64,2.434,0.64c1.623,0,3.511-0.552,5.094-1.781v5c-1.333,0.834-2.862,1.352-3.973,1.611  C20.918,31.87,19.717,32,18.426,32c-1.349,0-2.652-0.148-3.886-0.556c-1.127-0.37-1.756-0.78-2.552-1.463  c-0.794-0.686-1.181-1.374-1.488-2.147C10.193,27.065,10,25.466,10,24V13H6V8c1.281-0.094,2.34-0.455,3.234-1.216  c0.901-0.766,1.621-1.683,2.162-2.754C11.941,2.958,12,1.646,12,0H17z" fill="#44546A"/><g/><g/><g/><g/><g/><g/></svg>